<?xml version="1.0" ?><!DOCTYPE svg  PUBLIC '-//W3C//DTD SVG 1.1//EN'  'http://www.w3.org/Graphics/SVG/1.1/DTD/svg11.dtd'><svg height="100%" style="fill-rule:evenodd;clip-rule:evenodd;stroke-linejoin:round;stroke-miterlimit:2;" version="1.1" viewBox="0 0 512 512" width="100%" xml:space="preserve" xmlns="http://www.w3.org/2000/svg" xmlns:serif="http://www.serif.com/" xmlns:xlink="http://www.w3.org/1999/xlink"><g><path d="M409.756,0l-307.512,0c-56.248,0 -102.244,46.024 -102.244,102.244l0,307.529c0,56.221 45.996,102.241 102.244,102.241l307.512,0c56.213,0 102.244,-46.02 102.244,-102.241l0,-307.529c0,-56.22 -46.031,-102.244 -102.244,-102.244Z" style="fill:#061a34;fill-rule:nonzero;"/><path d="M344.173,415.476l-53.95,0c-48.577,0 -84.78,-24.999 -84.78,-84.797l0,-95.764l-44.157,0l0,-51.851c48.577,-12.618 68.905,-54.428 71.239,-90.634l50.45,0l0,82.223l58.865,0l0,60.262l-58.865,0l0,83.386c0,24.996 12.622,33.636 32.703,33.636l28.495,0l0,63.539Z" style="fill:#fff;fill-rule:nonzero;"/></g></svg>